<svg width="80" height="45" viewBox="0 0 80 45" fill="none" xmlns="http://www.w3.org/2000/svg">
<path d="M1.83766 14.3494C2.58184 14.1469 3.52486 14.1503 6.1893 16.4369C8.85375 18.7236 13.2394 23.2932 17.8406 24.3868C22.4419 25.4803 27.2584 23.0976 33.3066 22.0119C39.3548 20.9262 46.6343 21.1375 53.9139 21.3489C53.7486 17.4045 53.5833 13.4603 53.2454 11.27C52.9075 9.0797 52.397 8.64359 52.1052 7.08755C51.8133 5.53151 51.7399 2.85566 52.126 1.59862C52.5121 0.341577 53.3575 0.503346 54.2382 1.71678C55.1189 2.93021 56.0348 5.19517 56.7444 6.47045C57.454 7.74573 57.9573 8.03122 58.3951 7.97887C58.8329 7.92652 59.2053 7.53636 59.8847 6.1088C60.5641 4.68123 61.5505 2.21641 62.2399 0.983972C62.9294 -0.248468 63.3219 -0.248482 63.8151 0.569987C64.3083 1.38846 64.9022 3.02532 65.0884 4.78122C65.2746 6.5371 65.0532 8.41191 64.8317 10.2867C65.7174 11.4097 66.6031 12.5327 67.4889 13.6557C71.1425 13.7128 74.7961 13.7699 76.8494 13.9555C78.9026 14.1411 79.3556 14.4551 79.5921 15.1213C79.8286 15.7875 79.8487 16.8058 77.3576 17.4625C74.8664 18.1191 69.8643 18.4142 70.0002 18.6473C70.1361 18.8805 75.41 19.0518 77.6143 19.8893C79.8185 20.7268 78.953 22.2304 76.5725 23.0584C74.1921 23.8864 70.297 24.0387 67.816 24.2909C65.3349 24.5431 64.2681 24.8952 63.3471 25.7041C62.4261 26.5131 61.6511 27.7788 61.2536 28.9542C60.856 30.1295 60.8359 31.2144 61.0774 31.8616C61.319 32.5087 61.8223 32.7181 62.4866 33.5405C63.1509 34.363 63.9762 35.7984 63.3622 36.3742C62.7482 36.95 60.695 36.666 58.848 36.2576C57.0011 35.8491 55.3605 35.3162 54.6962 35.7968C54.0319 36.2774 54.3439 37.7716 54.4597 38.7756C54.5754 39.7796 54.4949 40.2935 54.2886 40.717C54.0822 41.1405 53.7501 41.4736 53.2569 41.6069C52.7637 41.7401 52.1095 41.6735 51.566 41.2595C51.0224 40.8455 50.5897 40.0842 50.2022 39.2229C49.8146 38.3616 49.4724 37.4004 49.1302 36.4392C42.9201 37.3623 36.7099 38.2855 30.4998 39.2086C30.1576 40.5314 29.8154 41.8543 29.4027 42.5538C28.99 43.2533 28.5069 43.3294 27.9332 43.3389C27.3595 43.3484 26.6952 43.2913 26.0963 42.5205C25.4975 41.7496 24.964 40.265 24.3299 40.3602C23.6958 40.4553 22.9611 42.1303 22.3018 43.0868C21.6426 44.0432 21.0588 44.2811 20.4851 44.4048C19.9114 44.5285 19.3477 44.538 18.9049 44.343C18.462 44.1478 18.1399 43.7482 17.8883 43.2152C17.6367 42.6823 17.4555 42.0161 17.2542 39.7891C17.0529 37.5621 16.8315 33.7744 16.61 29.9867C15.0198 29.4823 13.4295 28.9779 10.5911 26.8033C7.75273 24.6286 3.66639 20.7839 1.69364 18.5997C-0.279101 16.4156 -0.138189 15.8922 0.204954 15.4263C0.548096 14.9603 1.09347 14.5519 1.83766 14.3494Z" fill="#DE700F"/>
<path d="M57.5446 12.8848C57.7006 12.8848 58.0126 12.8848 58.2793 12.9918C58.5461 13.0989 58.7675 13.313 58.7851 13.5652C58.8027 13.8174 58.6165 14.1077 58.4001 14.2576C58.1837 14.4075 57.9371 14.417 57.7282 14.3123C57.5194 14.2076 57.3483 13.9887 57.2477 13.7579C57.147 13.5271 57.1168 13.2845 57.1521 13.137C57.1874 12.9894 57.288 12.9371 57.3383 12.9109C57.3886 12.8848 57.3885 12.8848 57.5446 12.8848Z" fill="#752507"/>
<path d="M62.6651 12.5683C62.8689 12.6373 63.2766 12.7753 63.493 13.0347C63.7094 13.294 63.7345 13.6747 63.493 13.8769C63.2514 14.0791 62.7431 14.1029 62.4185 14.0815C62.0939 14.0601 61.953 13.9934 61.8876 13.7175C61.8222 13.4415 61.8322 12.9561 61.9403 12.7182C62.0485 12.4803 62.2549 12.4898 62.358 12.4945C62.4612 12.4991 62.4613 12.4991 62.6651 12.5683Z" fill="#752507"/>
<path d="M21.5053 27.6702C20.7799 28.5801 20.0544 29.49 19.329 30.3999L21.5053 27.6702Z" fill="#DE700F"/>
<path d="M21.5053 27.6702C20.7799 28.5801 20.0544 29.49 19.329 30.3999" stroke="#752507" stroke-width="0.583127" stroke-miterlimit="1.1"/>
<path d="M18.722 27.6982C19.6893 28.3981 20.6565 29.098 21.6238 29.7979L18.722 27.6982Z" fill="#DE700F"/>
<path d="M18.722 27.6982C19.6893 28.3981 20.6565 29.098 21.6238 29.7979" stroke="#752507" stroke-width="0.583127" stroke-miterlimit="1.1"/>
</svg>
